{"accessors" : [{"bufferView" : 0, "byteOffset" : 0, "componentType" : 5123, "count" : 12456, "type" : "SCALAR", "max" : [11512], "min" : [0]}, {"bufferView" : 1, "byteOffset" : 0, "componentType" : 5126, "count" : 11513, "type" : "VEC3", "max" : [12.202058792114258, 6.5658464431762695, 11.930000305175781], "min" : [-12.291288375854492, -26.14672088623047, 0], "name" : "POSITION"}, {"bufferView" : 1, "byteOffset" : 12, "componentType" : 5126, "count" : 11513, "type" : "VEC3", "max" : [0.83844393491745, 0.83844393491745, 1.0000044107437134], "min" : [-0.9442427158355713, -0.83844393491745, -1.0000044107437134], "name" : "NORMAL"}], "asset" : {"generator" : "Aspose.3D 23.2", "version" : "2.0"}, "buffers" : [{"uri" : "data:application/octet-stream;base64,", "byteLength" : 323864}], "bufferViews" : [{"buffer" : 0, "byteOffset" : 0, "byteLength" : 24912, "target" : 34963}, {"buffer" : 0, "byteOffset" : 24916, "byteLength" : 298944, "byteStride" : 24, "target" : 34962}], "meshes" : [{"primitives" : [{"attributes" : {"POSITION" : 1, "NORMAL" : 2}, "indices" : 0, "mode" : 4}], "name" : ""}], "nodes" : [{"mesh" : 0, "name" : ""}], "scene" : 0, "scenes" : [{"nodes" : [0]}]}